<?xml version="1.0" standalone="yes"?>

<svg version="1.1" viewBox="0.0 0.0 960.0 720.0" fill="none" stroke="none" stroke-linecap="square" stroke-miterlimit="10" xmlns="http://www.w3.org/2000/svg" xmlns:xlink="http://www.w3.org/1999/xlink"><clipPath id="p.0"><path d="m0 0l960.0 0l0 720.0l-960.0 0l0 -720.0z" clip-rule="nonzero"></path></clipPath><g clip-path="url(#p.0)"><path fill="#000000" fill-opacity="0.0" d="m0 0l960.0 0l0 720.0l-960.0 0z" fill-rule="nonzero"></path><path fill="#cfe2f3" d="m128.68767 95.57743l0 0c0 -15.463974 21.990921 -28.0 49.118103 -28.0l0 0c27.127182 0 49.11812 12.536026 49.11812 28.0l0 0c0 15.463966 -21.990936 28.0 -49.11812 28.0l0 0c-27.127182 0 -49.118103 -12.536034 -49.118103 -28.0z" fill-rule="nonzero"></path><path stroke="#000000" stroke-width="1.0" stroke-linejoin="round" stroke-linecap="butt" d="m128.68767 95.57743l0 0c0 -15.463974 21.990921 -28.0 49.118103 -28.0l0 0c27.127182 0 49.11812 12.536026 49.11812 28.0l0 0c0 15.463966 -21.990936 28.0 -49.11812 28.0l0 0c-27.127182 0 -49.118103 -12.536034 -49.118103 -28.0z" fill-rule="nonzero"></path></g></svg>

